<svg xmlns="http://www.w3.org/2000/svg" viewBox="0 0 144 137"><defs><style>.cls-1{fill:#31b257;}.cls-2{fill:#4f4f4f;}</style></defs><title>Logo_1</title><g id="Layer_2" data-name="Layer 2"><g id="Layer_1-2" data-name="Layer 1"><path id="curve2" class="cls-1" d="M33.55,0,91.43,28.76,57.87,96.28,0,67.52ZM36,7.22l14.47,7.19L43.26,28.88l19.29,9.58L69.74,24l14.47,7.19L55.45,89.06l-48.23-24Z"/><path id="curve1" class="cls-2" d="M106,96.16a21.54,21.54,0,1,1-28.88,9.7A21.54,21.54,0,0,1,106,96.16Zm-4.79,9.64a10.78,10.78,0,1,1-14.44,4.86A10.79,10.79,0,0,1,101.25,105.8Z"/><path id="curve0" class="cls-2" d="M18.75,97.37,15,86.12a2.69,2.69,0,0,1,3.75-3.27l41.58,20.66,44.34-89.22a8.09,8.09,0,0,1,8-4.45l23.33-.06a8,8,0,1,1,0,16.08l-19.08.05L106.91,46l9,26.76a5.4,5.4,0,0,1-.27,4.11h0l-7.19,14.47h0A26.85,26.85,0,0,0,97.8,88.55L105,74.06l-4.85-14.43L84.36,91.38a26.93,26.93,0,0,0-14.47,28.4,8.06,8.06,0,0,1-9.54,1.76l-36.17-18a10.52,10.52,0,0,1-5.43-6.21Z"/></g></g></svg>